<svg width="22" height="26" viewBox="0 0 22 26" fill="none" xmlns="http://www.w3.org/2000/svg">
<path d="M0.861328 8.35156C0.861328 7.30859 1.06055 6.33008 1.45898 5.41602C1.85742 4.50195 2.39648 3.70508 3.07617 3.02539C3.76758 2.33398 4.57031 1.78906 5.48438 1.39062C6.39844 0.992187 7.37695 0.792969 8.41992 0.792969H19.9863V5.83789H8.41992C8.06836 5.83789 7.74023 5.90234 7.43555 6.03125C7.13086 6.16016 6.86133 6.3418 6.62695 6.57617C6.4043 6.79883 6.22852 7.0625 6.09961 7.36719C5.9707 7.67188 5.90625 8 5.90625 8.35156C5.90625 8.70312 5.9707 9.03711 6.09961 9.35352C6.22852 9.6582 6.4043 9.92773 6.62695 10.1621C6.86133 10.3848 7.13086 10.5605 7.43555 10.6895C7.74023 10.8184 8.06836 10.8828 8.41992 10.8828H13.4648C14.5078 10.8828 15.4863 11.082 16.4004 11.4805C17.3262 11.8672 18.1289 12.4062 18.8086 13.0977C19.5 13.7773 20.0391 14.5801 20.4258 15.5059C20.8242 16.4199 21.0234 17.3984 21.0234 18.4414C21.0234 19.4844 20.8242 20.4629 20.4258 21.377C20.0391 22.291 19.5 23.0938 18.8086 23.7852C18.1289 24.4648 17.3262 25.0039 16.4004 25.4023C15.4863 25.8008 14.5078 26 13.4648 26H2.26758V20.9551H13.4648C13.8164 20.9551 14.1445 20.8906 14.4492 20.7617C14.7539 20.6328 15.0176 20.457 15.2402 20.2344C15.4746 20 15.6562 19.7305 15.7852 19.4258C15.9141 19.1211 15.9785 18.793 15.9785 18.4414C15.9785 18.0898 15.9141 17.7617 15.7852 17.457C15.6562 17.1523 15.4746 16.8887 15.2402 16.666C15.0176 16.4316 14.7539 16.25 14.4492 16.1211C14.1445 15.9922 13.8164 15.9277 13.4648 15.9277H8.41992C7.37695 15.9277 6.39844 15.7285 5.48438 15.3301C4.57031 14.9316 3.76758 14.3926 3.07617 13.7129C2.39648 13.0215 1.85742 12.2188 1.45898 11.3047C1.06055 10.3789 0.861328 9.39453 0.861328 8.35156Z" fill="url(#paint0_linear)"/>
<defs>
<linearGradient id="paint0_linear" x1="4.35682e-09" y1="15" x2="23.0026" y2="15.0299" gradientUnits="userSpaceOnUse">
<stop stop-color="#3494E6"/>
<stop offset="1" stop-color="#CB3066"/>
</linearGradient>
</defs>
</svg>
