<svg width="169" height="35" viewBox="0 0 169 35" fill="none" xmlns="http://www.w3.org/2000/svg">
<path d="M0.861328 9.35156C0.861328 8.30859 1.06055 7.33008 1.45898 6.41602C1.85742 5.50195 2.39648 4.70508 3.07617 4.02539C3.76758 3.33398 4.57031 2.78906 5.48438 2.39062C6.39844 1.99219 7.37695 1.79297 8.41992 1.79297H19.9863V6.83789H8.41992C8.06836 6.83789 7.74023 6.90234 7.43555 7.03125C7.13086 7.16016 6.86133 7.3418 6.62695 7.57617C6.4043 7.79883 6.22852 8.0625 6.09961 8.36719C5.9707 8.67188 5.90625 9 5.90625 9.35156C5.90625 9.70312 5.9707 10.0371 6.09961 10.3535C6.22852 10.6582 6.4043 10.9277 6.62695 11.1621C6.86133 11.3848 7.13086 11.5605 7.43555 11.6895C7.74023 11.8184 8.06836 11.8828 8.41992 11.8828H13.4648C14.5078 11.8828 15.4863 12.082 16.4004 12.4805C17.3262 12.8672 18.1289 13.4062 18.8086 14.0977C19.5 14.7773 20.0391 15.5801 20.4258 16.5059C20.8242 17.4199 21.0234 18.3984 21.0234 19.4414C21.0234 20.4844 20.8242 21.4629 20.4258 22.377C20.0391 23.291 19.5 24.0938 18.8086 24.7852C18.1289 25.4648 17.3262 26.0039 16.4004 26.4023C15.4863 26.8008 14.5078 27 13.4648 27H2.26758V21.9551H13.4648C13.8164 21.9551 14.1445 21.8906 14.4492 21.7617C14.7539 21.6328 15.0176 21.457 15.2402 21.2344C15.4746 21 15.6562 20.7305 15.7852 20.4258C15.9141 20.1211 15.9785 19.793 15.9785 19.4414C15.9785 19.0898 15.9141 18.7617 15.7852 18.457C15.6562 18.1523 15.4746 17.8887 15.2402 17.666C15.0176 17.4316 14.7539 17.25 14.4492 17.1211C14.1445 16.9922 13.8164 16.9277 13.4648 16.9277H8.41992C7.37695 16.9277 6.39844 16.7285 5.48438 16.3301C4.57031 15.9316 3.76758 15.3926 3.07617 14.7129C2.39648 14.0215 1.85742 13.2188 1.45898 12.3047C1.06055 11.3789 0.861328 10.3945 0.861328 9.35156ZM28.4941 34.1719H23.6602V8.17383H24.8203L26.7363 10.4414C27.1699 10.0312 27.6445 9.64453 28.1602 9.28125C28.6758 8.91797 29.209 8.60742 29.7598 8.34961C30.3223 8.08008 30.9023 7.86914 31.5 7.7168C32.0977 7.56445 32.7012 7.48828 33.3105 7.48828C34.6348 7.48828 35.877 7.72852 37.0371 8.20898C38.209 8.67773 39.2285 9.3457 40.0957 10.2129C40.9746 11.0801 41.666 12.1289 42.1699 13.3594C42.6738 14.5781 42.9258 15.9316 42.9258 17.4199C42.9258 18.9668 42.6738 20.3613 42.1699 21.6035C41.666 22.834 40.9746 23.8828 40.0957 24.75C39.2285 25.6055 38.209 26.2617 37.0371 26.7188C35.877 27.1758 34.6348 27.4043 33.3105 27.4043C32.8887 27.4043 32.4668 27.3574 32.0449 27.2637C31.6348 27.1699 31.2246 27.0469 30.8145 26.8945C30.416 26.7305 30.0176 26.5488 29.6191 26.3496C29.2324 26.1504 28.8574 25.9453 28.4941 25.7344V34.1719ZM38.1094 17.4199C38.1094 16.623 37.9805 15.9082 37.7227 15.2754C37.4766 14.6426 37.1367 14.1094 36.7031 13.6758C36.2695 13.2305 35.7598 12.8906 35.1738 12.6562C34.5879 12.4219 33.9668 12.3047 33.3105 12.3047C32.6543 12.3047 32.0332 12.4219 31.4473 12.6562C30.873 12.8906 30.3691 13.2305 29.9355 13.6758C29.502 14.1094 29.1562 14.6426 28.8984 15.2754C28.6523 15.9082 28.5293 16.623 28.5293 17.4199C28.5293 18.1816 28.6523 18.8789 28.8984 19.5117C29.1562 20.1445 29.502 20.6836 29.9355 21.1289C30.3691 21.5742 30.873 21.9199 31.4473 22.166C32.0332 22.4121 32.6543 22.5352 33.3105 22.5352C33.9668 22.5352 34.5879 22.4121 35.1738 22.166C35.7598 21.9199 36.2695 21.5742 36.7031 21.1289C37.1367 20.6836 37.4766 20.1445 37.7227 19.5117C37.9805 18.8789 38.1094 18.1816 38.1094 17.4199ZM63.791 17.4199C63.791 18.8262 63.5391 20.1387 63.0352 21.3574C62.5312 22.5645 61.8457 23.6133 60.9785 24.5039C60.1113 25.3828 59.0918 26.0801 57.9199 26.5957C56.7598 27.0996 55.5117 27.3516 54.1758 27.3516C52.8516 27.3516 51.6035 27.0996 50.4316 26.5957C49.2715 26.0801 48.252 25.3828 47.373 24.5039C46.5059 23.6133 45.8203 22.5645 45.3164 21.3574C44.8125 20.1387 44.5605 18.8262 44.5605 17.4199C44.5605 15.9902 44.8125 14.666 45.3164 13.4473C45.8203 12.2285 46.5059 11.1797 47.373 10.3008C48.252 9.41016 49.2715 8.71289 50.4316 8.20898C51.6035 7.70508 52.8516 7.45312 54.1758 7.45312C55.5117 7.45312 56.7598 7.69336 57.9199 8.17383C59.0918 8.64258 60.1113 9.31641 60.9785 10.1953C61.8457 11.0625 62.5312 12.1113 63.0352 13.3418C63.5391 14.5605 63.791 15.9199 63.791 17.4199ZM58.957 17.4199C58.957 16.6465 58.8281 15.9492 58.5703 15.3281C58.3242 14.6953 57.9844 14.1562 57.5508 13.7109C57.1172 13.2539 56.6074 12.9082 56.0215 12.6738C55.4473 12.4277 54.832 12.3047 54.1758 12.3047C53.5195 12.3047 52.8984 12.4277 52.3125 12.6738C51.7383 12.9082 51.2344 13.2539 50.8008 13.7109C50.3789 14.1562 50.0449 14.6953 49.7988 15.3281C49.5527 15.9492 49.4297 16.6465 49.4297 17.4199C49.4297 18.1465 49.5527 18.8203 49.7988 19.4414C50.0449 20.0625 50.3789 20.6016 50.8008 21.0586C51.2344 21.5156 51.7383 21.8789 52.3125 22.1484C52.8984 22.4062 53.5195 22.5352 54.1758 22.5352C54.832 22.5352 55.4473 22.4121 56.0215 22.166C56.6074 21.9199 57.1172 21.5742 57.5508 21.1289C57.9844 20.6836 58.3242 20.1445 58.5703 19.5117C58.8281 18.8789 58.957 18.1816 58.957 17.4199ZM75.7441 27C74.584 27 73.4941 26.7832 72.4746 26.3496C71.4551 25.9043 70.5586 25.3008 69.7852 24.5391C69.0234 23.7656 68.4199 22.8691 67.9746 21.8496C67.541 20.8301 67.3242 19.7402 67.3242 18.5801V12.9902H64.9863V8.20898H67.3242V0.685547H72.1055V8.20898H79.3828V12.9902H72.1055V18.5801C72.1055 19.084 72.1992 19.5586 72.3867 20.0039C72.5742 20.4375 72.832 20.8184 73.1602 21.1465C73.4883 21.4746 73.875 21.7383 74.3203 21.9375C74.7656 22.125 75.2402 22.2188 75.7441 22.2188H79.3828V27H75.7441ZM103.271 27H98.2441V6.83789H90.668V1.79297H110.83V6.83789H103.271V27ZM128.268 27H127.107L125.244 24.416C124.787 24.8262 124.301 25.2129 123.785 25.5762C123.281 25.9277 122.748 26.2383 122.186 26.5078C121.623 26.7656 121.043 26.9707 120.445 27.123C119.859 27.2754 119.262 27.3516 118.652 27.3516C117.328 27.3516 116.08 27.1289 114.908 26.6836C113.748 26.2383 112.729 25.5938 111.85 24.75C110.982 23.8945 110.297 22.8516 109.793 21.6211C109.289 20.3906 109.037 18.9902 109.037 17.4199C109.037 15.9551 109.289 14.6133 109.793 13.3945C110.297 12.1641 110.982 11.1094 111.85 10.2305C112.729 9.35156 113.748 8.67188 114.908 8.19141C116.08 7.69922 117.328 7.45312 118.652 7.45312C119.262 7.45312 119.865 7.5293 120.463 7.68164C121.061 7.83398 121.641 8.04492 122.203 8.31445C122.766 8.58398 123.299 8.90039 123.803 9.26367C124.318 9.62695 124.799 10.0195 125.244 10.4414L127.107 8.20898H128.268V27ZM123.434 17.4199C123.434 16.7637 123.305 16.1309 123.047 15.5215C122.801 14.9004 122.461 14.3555 122.027 13.8867C121.594 13.4062 121.084 13.0254 120.498 12.7441C119.924 12.4512 119.309 12.3047 118.652 12.3047C117.996 12.3047 117.375 12.416 116.789 12.6387C116.215 12.8613 115.711 13.1895 115.277 13.623C114.855 14.0566 114.521 14.5957 114.275 15.2402C114.029 15.873 113.906 16.5996 113.906 17.4199C113.906 18.2402 114.029 18.9727 114.275 19.6172C114.521 20.25 114.855 20.7832 115.277 21.2168C115.711 21.6504 116.215 21.9785 116.789 22.2012C117.375 22.4238 117.996 22.5352 118.652 22.5352C119.309 22.5352 119.924 22.3945 120.498 22.1133C121.084 21.8203 121.594 21.4395 122.027 20.9707C122.461 20.4902 122.801 19.9453 123.047 19.3359C123.305 18.7148 123.434 18.0762 123.434 17.4199ZM142.277 27H131.309V22.2188H142.277C142.605 22.2188 142.887 22.1016 143.121 21.8672C143.355 21.6328 143.473 21.3516 143.473 21.0234C143.473 20.6836 143.355 20.4609 143.121 20.3555C142.887 20.25 142.605 20.1973 142.277 20.1973H137.285C136.453 20.1973 135.674 20.0391 134.947 19.7227C134.221 19.4062 133.588 18.9785 133.049 18.4395C132.51 17.8887 132.082 17.25 131.766 16.5234C131.461 15.7969 131.309 15.0176 131.309 14.1855C131.309 13.3535 131.461 12.5742 131.766 11.8477C132.082 11.1211 132.51 10.4883 133.049 9.94922C133.588 9.41016 134.221 8.98828 134.947 8.68359C135.674 8.36719 136.453 8.20898 137.285 8.20898H147.006V12.9902H137.285C136.957 12.9902 136.676 13.1074 136.441 13.3418C136.207 13.5762 136.09 13.8574 136.09 14.1855C136.09 14.5254 136.207 14.8184 136.441 15.0645C136.676 15.2988 136.957 15.416 137.285 15.416H142.277C143.098 15.416 143.871 15.5566 144.598 15.8379C145.324 16.1074 145.957 16.4883 146.496 16.9805C147.035 17.4727 147.463 18.0645 147.779 18.7559C148.096 19.4473 148.254 20.2031 148.254 21.0234C148.254 21.8555 148.096 22.6348 147.779 23.3613C147.463 24.0762 147.035 24.709 146.496 25.2598C145.957 25.7988 145.324 26.2266 144.598 26.543C143.871 26.8477 143.098 27 142.277 27ZM155.654 27H150.82V0.685547H155.654V17.2793L162.809 8.20898H168.328L162.088 16.0488L168.328 27H162.809L158.994 20.1621L155.654 24.5918V27Z" fill="url(#paint0_linear)"/>
<defs>
<linearGradient id="paint0_linear" x1="3.20131e-08" y1="16" x2="169.004" y2="17.6162" gradientUnits="userSpaceOnUse">
<stop stop-color="#3494E6"/>
<stop offset="1" stop-color="#CB3066"/>
</linearGradient>
</defs>
</svg>
